<?xml version="1.0" encoding="UTF-8" standalone="no"?>
<svg
   xmlns:dc="http://purl.org/dc/elements/1.1/"
   xmlns:cc="http://creativecommons.org/ns#"
   xmlns:rdf="http://www.w3.org/1999/02/22-rdf-syntax-ns#"
   xmlns:svg="http://www.w3.org/2000/svg"
   xmlns="http://www.w3.org/2000/svg"
   xmlns:sodipodi="http://sodipodi.sourceforge.net/DTD/sodipodi-0.dtd"
   xmlns:inkscape="http://www.inkscape.org/namespaces/inkscape"
   width="2500"
   height="2021"
   viewBox="0 0 1478.201 1195.111"
   version="1.1"
   id="svg27"
   sodipodi:docname="white-ms.svg"
   inkscape:version="0.92.3 (2405546, 2018-03-11)">
  <metadata
     id="metadata33">
    <rdf:RDF>
      <cc:Work
         rdf:about="">
        <dc:format>image/svg+xml</dc:format>
        <dc:type
           rdf:resource="http://purl.org/dc/dcmitype/StillImage" />
        <dc:title></dc:title>
      </cc:Work>
    </rdf:RDF>
  </metadata>
  <defs
     id="defs31">
    <linearGradient
       gradientTransform="matrix(0.0702146,0,0,-0.0702146,858.54077,799.37034)"
       y2="1420.331"
       x2="-2061.249"
       y1="923.573"
       x1="-2901.952"
       gradientUnits="userSpaceOnUse"
       id="a">
      <stop
         id="stop2"
         stop-color="#909ca9"
         offset="0" />
      <stop
         id="stop4"
         stop-color="#ededee"
         offset="1" />
    </linearGradient>
    <linearGradient
       gradientTransform="matrix(0.0702146,0,0,-0.0702146,858.54077,799.37034)"
       y2="10288.81"
       x2="-2206.249"
       y1="10288.81"
       x1="-2882.7"
       gradientUnits="userSpaceOnUse"
       id="b">
      <stop
         id="stop9"
         stop-color="#939fab"
         offset="0" />
      <stop
         id="stop11"
         stop-color="#dcdee1"
         offset="1" />
    </linearGradient>
    <radialGradient
       gradientUnits="userSpaceOnUse"
       gradientTransform="matrix(-0.0674265,-0.0101282,-0.020484,0.134853,86.245605,-830.63713)"
       r="898.12"
       cy="7277.705"
       cx="-14217.448"
       id="c">
      <stop
         id="stop16"
         stop-color="#ee352c"
         offset="0"
         style="stop-color:#646464;stop-opacity:1" />
      <stop
         id="stop18"
         stop-color="#a91d22"
         offset="1"
         style="stop-color:#a0a0a0;stop-opacity:1" />
    </radialGradient>
  </defs>
  <sodipodi:namedview
     pagecolor="#ffffff"
     bordercolor="#666666"
     borderopacity="1"
     objecttolerance="10"
     gridtolerance="10"
     guidetolerance="10"
     inkscape:pageopacity="0"
     inkscape:pageshadow="2"
     inkscape:window-width="1920"
     inkscape:window-height="1017"
     id="namedview29"
     showgrid="false"
     inkscape:pagecheckerboard="true"
     inkscape:zoom="0.1136"
     inkscape:cx="1250"
     inkscape:cy="1010.5"
     inkscape:window-x="1912"
     inkscape:window-y="-8"
     inkscape:window-maximized="1"
     inkscape:current-layer="svg27" />
  <path
     inkscape:connector-curvature="0"
     style="fill:url(#a);stroke-width:0.56900001"
     id="path7"
     d="m 1002.1808,380.54195 -163.24606,53.30563 -142.02183,62.68161 -39.73271,10.48952 c -10.11909,9.6252 -20.72923,19.37388 -32.20483,29.24489 -12.58571,10.85766 -24.30768,20.73038 -33.31665,27.88555 -9.99392,7.89772 -24.80101,22.70424 -32.32717,32.08022 -11.22921,14.06625 -20.11301,28.99624 -23.9384,40.47297 -6.78703,20.73038 -3.45383,41.70599 9.62521,61.07987 16.78094,24.67697 50.22051,49.84782 89.21066,66.99919 19.8672,8.7626 53.30563,19.9901 78.47648,26.28211 41.82833,10.61242 122.7737,22.08801 167.31673,23.81663 9.00613,0.36985 21.09966,0.36985 21.59184,0 0.98835,-0.61907 7.89829,-13.82044 15.92005,-30.2304 27.3928,-55.89742 47.13482,-108.33874 57.86901,-153.12871 6.41604,-27.14472 11.47445,-63.29898 14.80481,-106.11395 0.86545,-11.96948 1.23416,-52.07147 0.49389,-65.64553 -1.11126,-22.20978 -3.08569,-40.22375 -6.16796,-57.86901 -0.49389,-2.59179 -0.61907,-4.93664 -0.37099,-5.05955 0.49219,-0.36985 1.97273,-0.86317 22.08572,-6.66412 l -4.07,-9.62293 v -0.003 0 z m -37.26377,21.84164 c 1.48053,0 5.42769,37.88004 6.41433,61.81957 0.24809,5.05841 0.12291,8.38991 -0.1229,8.38991 -0.98608,0 -20.85328,-11.72083 -35.04073,-20.60463 -12.3399,-7.77425 -35.78327,-23.32217 -39.48461,-26.28325 -1.23644,-0.86317 -1.11354,-0.98608 9.00613,-4.44218 17.14966,-5.80039 57.87071,-18.87942 59.22778,-18.87942 z m -83.16561,27.39337 c 1.11125,0 3.94715,1.6023 10.73418,5.79868 25.4178,15.9172 59.96862,35.16704 74.77514,41.58422 4.56452,1.97386 5.0567,1.23246 -5.4294,8.39048 -22.45729,15.29984 -50.46859,30.35273 -84.77133,45.53024 -6.04505,2.7147 -11.10346,4.81146 -11.22637,4.81146 -0.24581,0 0.49219,-3.08284 1.47826,-6.78532 8.26757,-30.72657 12.95727,-61.82015 13.20536,-86.74519 0.1229,-12.3399 0.1229,-12.3399 1.23416,-12.70805 -0.24809,0.12348 -0.12518,0.12348 0,0.12348 z m -17.1508,6.53894 c 0.73799,0.73913 0.24581,28.38002 -0.74198,35.90618 -2.2208,18.01568 -5.67577,34.79606 -11.34984,53.67661 -1.35763,4.56225 -2.5935,8.38991 -2.8376,8.63572 -0.49617,0.61622 -17.40059,-15.91778 -22.95289,-22.33382 -9.62521,-11.10574 -17.15023,-22.21092 -22.7031,-33.06857 -2.83818,-5.55288 -7.27922,-16.40996 -6.90994,-16.78095 1.97386,-1.35707 67.00146,-26.52792 67.49535,-26.03517 z m -80.69899,31.71094 c 0.1229,0 0.2458,0 0.37098,0.12291 0.24581,0.24694 1.11126,2.22194 1.85153,4.44218 3.94715,10.73532 12.82981,26.52906 20.48229,36.64758 8.39048,11.10574 19.37331,22.95005 28.50178,30.72373 2.96278,2.46775 5.67578,4.81146 6.04506,5.18245 0.74197,0.74084 0.98835,0.61623 -19.12523,8.26757 -23.31819,8.8838 -48.73826,17.76759 -77.85912,27.14471 a 3883.6947,3883.6947 0 0 0 -20.84986,6.78703 c -1.1124,0.37099 -0.74141,-0.24694 2.46661,-5.30478 14.4361,-22.58134 36.39893,-66.87799 48.73884,-98.21964 2.0979,-5.4294 4.19523,-10.85766 4.56622,-12.09182 0.49389,-1.72863 1.10955,-2.34485 2.71299,-3.20916 0.86374,-0.24467 1.72862,-0.49276 2.09791,-0.49276 z m -24.67583,10.24143 c 0.36928,0.24809 -5.92386,13.44946 -12.09352,25.54184 -11.96949,23.32047 -25.04852,46.27279 -42.56974,74.15834 -2.96107,4.81147 -5.79811,9.25479 -6.1691,9.74811 -0.61622,0.86431 -0.86431,0.61623 -2.83817,-3.20802 -4.19524,-8.26757 -7.65134,-18.87999 -9.50173,-28.6281 -1.85153,-9.6252 -1.48054,-26.40501 0.61793,-36.76935 1.60231,-7.64963 1.48054,-7.52616 5.18189,-9.37769 15.79373,-8.02005 66.87855,-31.95845 67.37244,-31.46513 z m 212.84754,8.63856 v 5.18188 c 0,27.51628 -2.96108,65.27341 -7.28149,92.79082 -0.74027,4.81146 -1.35934,8.75861 -1.48054,8.88379 0,0 -3.57787,-0.98607 -7.77311,-2.22194 -18.50786,-5.79982 -38.62088,-14.31376 -56.76003,-24.30654 -11.97062,-6.54009 -29.36722,-17.27655 -28.87276,-17.77044 0.12119,-0.12234 5.30478,-2.83704 11.34984,-6.04563 24.18762,-12.58514 47.38291,-26.15806 67.49592,-39.60752 7.5273,-5.05955 18.87714,-13.20194 21.34774,-15.42388 z M 666.064,523.4281 c 0.49332,0 0.36985,0.98721 -0.37042,5.42939 -0.49389,3.20916 -1.11012,9.13189 -1.35536,13.20194 -0.98949,18.01568 1.97387,31.3428 10.85766,49.60372 2.46776,5.05954 4.44332,9.25478 4.31814,9.37712 -0.86431,0.7414 -82.5471,24.68037 -108.21412,31.71264 -7.64964,2.09677 -14.31149,3.94829 -14.80766,4.07006 -0.86203,0.24808 -0.98608,0.12518 -0.61623,-1.97443 2.83761,-18.13688 16.65805,-41.82833 35.90618,-61.81844 12.83323,-13.32541 23.07523,-21.09852 40.59644,-31.09471 12.58571,-7.15517 31.95789,-17.88879 33.43843,-18.38382 10e-4,-0.12347 0.12404,-0.12347 0.24694,-0.12347 z m 192.48986,34.4262 c 0.1229,-0.1229 3.08398,1.48225 6.66185,3.57901 26.40615,15.30098 63.17607,29.49127 94.51545,36.77049 l 2.83988,0.61793 -3.94943,2.21854 c -16.40996,9.13188 -70.33181,31.58803 -125.48612,52.1955 -8.02176,2.95994 -15.91778,5.92272 -17.40059,6.53895 -1.48054,0.61623 -2.83817,0.98722 -2.83817,0.86431 0,-0.12518 2.22251,-4.44332 5.05841,-9.74811 15.42388,-28.87333 30.97237,-64.03924 38.86896,-88.47096 0.98949,-2.34428 1.60458,-4.44105 1.72976,-4.56566 z m -19.61912,6.41719 c 0.12518,0.12574 -0.86318,2.71469 -2.09791,5.67577 -10.73418,26.03516 -24.80271,54.41688 -42.81668,86.25073 -4.56452,8.14466 -8.39047,14.68475 -8.51565,14.68475 -0.1212,0 -3.82425,-2.22251 -8.26586,-4.93664 -26.16035,-16.04125 -49.35677,-35.78328 -64.53257,-54.90907 l -2.22195,-2.7147 11.22751,-3.08512 c 40.22603,-10.98056 74.40358,-22.826 108.3376,-37.38558 4.81317,-1.97499 8.7626,-3.58014 8.88551,-3.58014 z m 121.90995,42.56973 c 0,0 0.12348,0.12347 0,0 0.12291,2.83817 -6.17023,28.25711 -11.35325,46.64036 -4.31814,15.42389 -8.02177,27.51741 -14.80652,48.86231 -2.96108,9.37996 -5.5506,17.15137 -5.67578,17.15137 -0.1229,0 -0.86317,-0.12291 -1.60344,-0.36815 -36.64644,-6.66526 -69.46864,-15.91891 -100.31641,-28.25711 -8.63855,-3.4561 -20.97675,-9.00897 -21.71702,-9.6252 -0.24581,-0.24922 7.15802,-3.70191 16.53514,-7.77425 56.14266,-24.55462 114.38266,-52.44131 134.37106,-64.40852 2.34371,-1.48111 4.19524,-2.22081 4.56622,-2.22081 z m -281.45357,9.6252 c 0.24695,0.24581 -15.42388,22.82715 -37.38842,53.55087 -7.64964,10.73532 -16.53343,23.32047 -19.86436,28.00903 -3.33206,4.68912 -8.39047,12.09295 -11.22865,16.53514 l -5.18472,8.02062 -5.55288,-4.68856 c -6.54008,-5.43054 -17.89049,-17.02846 -22.94947,-23.44508 -10.61242,-13.20137 -17.7676,-27.14471 -20.60577,-39.85276 -1.35763,-5.92386 -1.35763,-8.88664 -0.12518,-9.25478 1.85039,-0.49332 34.79606,-8.26757 65.64553,-15.42559 17.15137,-3.94715 37.01573,-8.63571 44.17261,-10.3632 7.15745,-1.73033 12.95841,-3.08569 13.08131,-3.08569 z m 15.79316,6.0462 3.94716,4.44161 c 17.77044,19.86607 35.90845,34.55196 57.87185,47.38177 3.94943,2.22251 6.90993,4.19524 6.66185,4.32099 -0.86147,0.61622 -76.2551,27.38938 -111.17406,39.48234 -19.61799,6.90936 -35.78328,12.46167 -35.90504,12.46167 -0.12291,0 -1.23416,-0.73913 -2.47003,-1.60345 l -2.21967,-1.60458 3.57787,-5.18131 c 11.59793,-16.78152 26.16035,-35.16591 57.87128,-73.41693 z m 98.46716,70.45472 c 0.1212,-0.12234 5.5506,1.85038 12.21302,4.32098 16.04295,6.04506 28.74986,9.86931 45.77946,14.18859 20.97675,5.30649 51.33006,10.48894 69.22283,11.96891 2.7147,0.24581 4.19524,0.49389 3.70135,0.86431 -0.86545,0.4939 -19.00176,6.54009 -32.32831,10.73533 -21.22483,6.66185 -86.00378,25.78708 -138.81437,40.96515 -9.74811,2.8376 -18.13915,5.18245 -18.63248,5.30479 -1.23245,0.24808 -5.30592,-0.86431 -5.30592,-1.35764 0,-0.24523 2.96107,-4.07005 6.54008,-8.26586 17.76703,-21.2237 35.41343,-44.91401 50.09704,-67.37131 4.07063,-6.17137 7.5273,-11.22978 7.5273,-11.35325 z m -21.71873,0.6185 c 0.1229,0.1229 -8.63685,14.18858 -23.93555,38.37279 -6.54123,10.24143 -13.82158,21.83993 -16.41338,25.91226 -2.46775,3.94829 -6.1691,10.1191 -8.26586,13.57293 l -3.57901,6.29371 -1.85039,-0.4939 c -4.44332,-1.23416 -35.66037,-12.21699 -43.92794,-15.54792 -10.242,-4.07233 -20.85328,-9.0067 -28.751,-13.20194 -9.86987,-5.30649 -22.20807,-13.20421 -21.22199,-13.44945 0.24638,-0.12291 17.15137,-4.69027 37.50962,-10.24143 54.04589,-14.68532 84.02878,-23.19813 103.64961,-29.36723 3.57901,-1.11069 6.66299,-1.975 6.78589,-1.84982 z m 153.62147,36.02794 h 0.1229 c 0.49389,1.2353 -19.49394,56.7606 -26.77714,74.28125 -1.60174,3.94829 -2.21682,4.93721 -3.08227,4.81146 -2.09791,-0.1212 -31.09358,-4.19353 -48.74054,-6.78533 -30.72259,-4.68856 -82.30073,-13.69753 -95.25572,-16.65747 l -2.96108,-0.61623 18.38268,-4.19808 c 39.48633,-8.8838 58.48808,-13.69526 77.73621,-19.61798 24.30882,-7.40326 48.37126,-16.65805 72.6778,-28.00903 3.82482,-1.72805 7.03341,-3.08512 7.89716,-3.20859 z" />
  <path
     inkscape:connector-curvature="0"
     style="fill:url(#b);stroke-width:0.56900001"
     id="path14"
     d="m 833.87633,0.005566 c -2.7147,-0.368143 -46.51974,15.42559 -74.77514,26.899475 -38.12869,15.549063 -67.74059,30.356719 -86.00321,43.186531 -6.78533,4.814309 -15.30098,13.327118 -16.65634,16.658044 -0.49332,1.234161 -0.7414,2.714699 -0.7414,4.195237 l 16.53514,15.670827 39.36057,12.58571 93.65399,16.78152 107.10173,18.38553 1.11126,-9.25422 c -0.36929,0 -0.61737,-0.1229 -0.98437,-0.1229 l -14.07024,-2.22195 -2.83589,-5.05841 C 881.01172,112.04508 864.97104,80.210099 855.59392,58.740022 848.3147,42.081978 841.4042,22.834984 837.57824,9.014543 835.48034,0.624069 835.23453,0.130746 833.87917,0.007842 V 0.004997 h -0.006 z m -1.97671,6.294847 h 0.12689 c 0.12119,0.121766 0.61509,3.57901 1.10955,7.648498 2.09562,17.277116 5.92386,33.932315 11.96891,51.947993 4.56452,13.573495 4.56452,12.833795 -0.74027,11.228646 -12.58571,-3.45383 -68.97474,-13.201938 -109.817,-18.877713 -6.54008,-0.864311 -12.09295,-1.727484 -12.09295,-1.850388 -0.49333,-0.493323 29.48956,-16.16529 42.69264,-22.33325 16.90442,-7.775385 63.29897,-27.147559 66.75223,-27.763786 z m -118.94774,55.27835 4.81431,1.602304 c 26.15693,8.885504 91.92252,21.471784 128.20139,24.43286 4.07062,0.370419 7.5273,0.741407 7.64849,0.741407 0.12291,0.122904 -3.32978,1.973861 -7.7731,4.070626 -17.51951,8.76089 -36.76935,19.49622 -50.0959,27.76379 -3.94715,2.46661 -7.5273,4.44218 -8.01949,4.44218 -0.49389,0 -3.08398,-0.49389 -5.79868,-0.86431 l -4.9355,-0.74141 -12.33763,-12.09296 C 742.93875,89.834734 725.91028,73.547678 719.3702,67.376873 Z m -4.9338,3.824249 17.39774,21.717592 c 9.50003,11.968915 19.12466,23.690316 21.22427,26.280406 2.09563,2.59293 3.82425,4.6914 3.70135,4.81431 -0.4939,0.36985 -25.17029,-4.44333 -38.2516,-7.40326 -13.44945,-3.08569 -19.00175,-4.56623 -27.26875,-7.15632 l -6.78704,-2.22194 v -1.728623 c 0.12291,-8.26757 10.61242,-20.605766 28.38002,-33.190339 z m 147.82108,29.614174 c 0.49446,0 1.10955,1.110119 2.59009,4.441614 4.19523,9.25365 17.27711,34.17983 20.48229,38.99129 0.99006,1.60572 2.7147,1.72863 -14.68134,-1.10955 -41.82833,-6.78817 -55.27949,-9.0067 -55.27949,-9.25364 0,-0.12291 1.23416,-0.98722 2.83817,-1.85153 12.9567,-7.15517 26.03517,-16.28706 37.6348,-26.03516 2.83817,-2.344852 5.4294,-4.565659 5.92159,-4.936647 0.1229,-0.246377 0.37098,-0.369281 0.49389,-0.246377 z" />
  <path
     inkscape:connector-curvature="0"
     style="fill:url(#c);stroke-width:0.56900001"
     id="path21"
     d="m 657.30254,85.022132 c 0,0 -2.71299,4.320417 -0.12234,10.73703 1.60572,3.947153 6.29371,8.758618 11.5985,13.695258 0,0 54.9085,53.55087 61.57206,61.20221 30.35274,35.04187 43.55638,69.59155 44.79054,117.22083 0.74027,30.60082 -5.06068,57.49973 -19.49621,88.71791 -25.66532,56.01976 -79.83469,117.83876 -163.36958,186.44423 l 12.21757,-4.07233 c 7.89658,-5.92386 18.63191,-12.21473 43.80276,-26.03517 58.11595,-31.83668 123.5134,-61.07987 203.71793,-91.1868 115.4905,-43.43461 305.39083,-94.27249 413.47863,-110.80478 l 11.2304,-1.72862 -1.7287,-2.7147 c -9.8693,-15.30098 -16.658,-24.80101 -24.8027,-34.91896 -23.6891,-29.36723 -52.4373,-53.18045 -87.6055,-72.92361 -48.369,-27.02124 -110.9299,-48.1209 -190.14442,-63.79173 -14.92999,-2.96278 -47.75218,-8.63799 -74.40414,-12.70975 -56.51365,-8.75862 -93.03719,-14.80595 -133.26151,-21.71589 -14.43553,-2.46889 -36.03079,-6.16967 -50.34398,-9.25365 -7.40326,-1.60571 -21.59185,-4.93664 -32.69702,-8.76146 -8.8838,-3.456673 -21.71759,-6.911641 -24.43229,-17.400018 z m 31.83669,30.848908 c 0.12176,-0.12177 2.09562,0.61622 4.68856,1.48053 4.68856,1.60231 10.73418,3.45383 17.89277,5.4294 a 910.09843,910.09843 0 0 0 16.28706,4.31814 c 7.40326,1.84982 13.57179,3.57787 13.69469,3.57787 0.86545,0.86432 13.32826,40.71651 17.52349,56.01749 1.60174,5.80095 2.83818,10.73532 2.7147,10.73532 -0.12688,0.12518 -1.48224,-1.97386 -3.08569,-4.81147 -14.43723,-25.41893 -37.26437,-51.20715 -63.67053,-71.93753 -3.45326,-2.46547 -6.04505,-4.68685 -6.04505,-4.80975 z m 60.70775,16.78094 c 0.61736,0 3.33206,0.37042 6.66185,1.11012 20.97675,4.68856 58.61155,11.84544 82.67171,15.91778 4.07234,0.61622 7.2815,1.3582 7.2815,1.60344 0,0.24808 -1.48225,1.11012 -3.33377,2.09847 -4.07006,2.09677 -20.4823,11.84374 -25.90999,15.54622 -13.69753,9.13074 -26.03516,19.00175 -34.9201,27.88555 -3.57787,3.57901 -6.66412,6.54009 -6.66412,6.54009 0,0 -0.738,-2.09677 -1.35764,-4.6897 -4.43934,-17.15137 -13.69526,-42.5703 -22.08573,-60.4608 -1.35764,-2.83704 -2.46889,-5.42883 -2.46889,-5.67464 0,0.24638 0,0.12347 0.12518,0.12347 z m 106.85535,20.35939 c 0.74027,0.24581 1.97443,4.44162 4.44161,13.69526 4.56623,17.89278 6.66413,37.88175 5.92386,56.51365 -0.24808,5.18245 -0.49389,9.99392 -0.74197,10.61242 l -0.36928,1.23246 -6.41605,-2.09677 c -13.20307,-4.19524 -34.67201,-10.48951 -53.0564,-15.67083 -10.49009,-2.83817 -19.00176,-5.4294 -19.00176,-5.67577 0,-0.74141 15.30098,-16.04125 21.83993,-21.83993 12.45996,-10.98341 46.2688,-37.14148 47.38006,-36.77049 z m 8.51395,1.23246 c 0.37099,-0.36815 51.08425,8.39047 74.15834,12.83322 17.1525,3.33093 42.07641,8.51395 43.55638,9.13188 0.74027,0.24581 -1.85153,1.72635 -10.1191,5.42769 -32.57411,14.68476 -56.76002,27.88556 -80.81848,43.92794 -6.29314,4.19524 -11.59964,7.64964 -11.72254,7.64964 -0.1229,0 -0.24638,-3.5773 -0.24638,-7.89658 0,-23.44337 -4.68913,-47.13483 -13.32825,-67.1238 -0.86318,-1.97443 -1.60345,-3.82481 -1.47997,-3.94999 z m 131.1636,25.91339 c 0.37099,0.36985 -1.23416,10.36548 -2.7147,16.28706 -4.44161,18.38553 -16.40996,45.65656 -31.09186,71.32017 -2.59351,4.56565 -4.93722,8.26757 -5.18587,8.39047 -0.2441,0.12291 -3.57617,-1.72862 -7.40212,-3.94943 -14.31263,-8.39047 -30.59968,-16.28705 -48.36898,-23.69145 -4.9338,-2.09677 -9.25365,-3.82539 -9.37712,-4.07006 -0.86545,-0.7414 38.86725,-27.02351 59.844,-39.60923 16.65805,-10.11738 43.80276,-25.17199 44.29665,-24.67753 z m 9.37712,1.47997 c 1.1113,0 23.5686,6.17024 35.2888,9.62521 28.998,8.63799 62.3123,20.85271 84.0294,30.72372 l 9.0061,4.07347 -6.2909,1.4794 c -53.0564,12.21473 -98.4648,26.28325 -142.26931,44.05084 -3.57844,1.48054 -6.78704,2.7147 -7.03114,2.7147 -0.24808,0 0.98608,-2.8376 2.59009,-6.29371 13.20308,-28.00902 21.71706,-57.25278 23.81266,-82.17896 0.1257,-2.34485 0.4933,-4.19467 0.8643,-4.19467 z m -223.58172,51.3312 c 0.36928,-0.37099 17.52122,3.70191 26.77543,6.29086 14.06625,3.95 43.92566,13.94335 43.92566,14.68476 0,0.1229 -3.33035,2.96107 -7.27751,6.41718 -16.16415,13.44945 -31.71264,27.63747 -50.34568,45.65314 -5.55288,5.30764 -10.2403,9.62578 -10.48611,9.62578 -0.24808,0 -0.36928,-0.74198 -0.24808,-1.72862 2.8376,-20.73038 2.22251,-47.38177 -1.72635,-74.40415 -0.37155,-3.45611 -0.74083,-6.41605 -0.61736,-6.53895 z m 360.42342,0.37099 c 0.2441,0.24524 -7.8983,13.07789 -13.0802,20.35711 -7.4021,10.61128 -18.2638,24.68038 -42.8184,55.52757 -12.9533,16.28592 -27.5157,34.67259 -32.326,40.84169 -4.9378,6.16909 -9.0079,11.35041 -9.1331,11.35041 -0.1229,0 -1.7246,-2.21967 -3.4532,-4.9338 -13.8205,-20.73038 -30.3556,-38.86896 -49.97471,-55.15602 -3.70135,-3.08568 -7.7714,-6.41718 -9.12904,-7.40439 -1.35763,-0.98665 -2.46889,-1.97386 -2.46889,-2.09677 0,-0.36928 20.97444,-9.37883 36.89454,-15.79373 27.8867,-11.35269 65.8868,-24.92505 94.3925,-33.68651 14.9306,-4.68799 30.8484,-9.25365 31.0965,-9.00556 z m 9.5,2.46604 c 0.4922,-0.12233 3.4549,1.35821 7.0334,3.45383 29.9846,17.15137 59.3495,39.23938 82.5488,61.94362 6.539,6.41718 22.7031,23.19813 22.455,23.32103 0,0 -5.6758,0.49333 -12.3376,0.98608 -51.9474,3.95 -118.4533,14.92999 -182.3708,30.35331 -4.3181,0.98607 -8.1424,1.85038 -8.3904,1.85038 -0.2441,0 4.5662,-4.81146 10.6135,-10.61014 37.5096,-36.15312 54.6621,-58.98026 74.8963,-99.70018 2.8371,-6.04449 5.306,-11.22694 5.5518,-11.59793 -0.1229,0 -0.1229,0 0,0 z M 877.3081,263.9402 c 1.72862,0.36814 17.7693,7.89772 29.86112,13.94221 11.10517,5.55059 27.76378,14.43666 28.62696,15.17579 0.1229,0.12291 -5.80096,3.20803 -13.0779,6.78704 -23.19927,11.59849 -43.0642,22.57905 -63.79514,35.16533 -5.92215,3.57901 -10.85766,6.5418 -10.98056,6.5418 -0.4939,0 -0.37099,-0.49617 2.96107,-6.5418 11.10574,-20.2342 19.9884,-44.41898 25.04909,-67.98753 0.49161,-1.85039 0.98608,-3.08284 1.35536,-3.08284 z m -16.04125,2.95994 c 0.37099,0.37098 -3.82425,15.54678 -6.41434,23.81435 -5.06068,15.67083 -13.57406,35.28938 -21.83993,50.09647 -1.9767,3.45326 -4.93721,8.51281 -6.54122,11.35041 l -3.08398,4.93551 -6.90994,-6.66128 c -8.01948,-7.77425 -14.56071,-12.58628 -22.94947,-16.90613 -3.33377,-1.72578 -5.92386,-3.20802 -5.92386,-3.45326 0,-0.98722 21.09966,-20.11245 37.26381,-33.93232 11.59793,-9.99505 36.02965,-29.6136 36.39893,-29.24375 z m 98.09787,40.34949 6.04677,3.94716 c 13.81646,9.00897 30.10351,20.97675 42.56861,31.46456 7.0311,5.79811 20.6035,18.01568 23.3204,20.97675 l 1.4783,1.60572 -9.9922,2.83703 c -56.51365,15.66913 -100.1935,29.61247 -151.15428,48.36899 -5.67577,2.09676 -10.48838,3.82425 -10.85936,3.82425 -0.738,0 -1.35707,0.61622 11.35382,-11.10631 32.57582,-29.98118 61.44745,-63.05203 82.9181,-95.25686 z m -25.78935,6.41605 c 0.24581,0.24581 -16.65805,24.05959 -26.77714,37.50962 -12.09182,16.04124 -33.56247,42.93958 -48.36898,60.45966 -6.16796,7.28149 -11.47275,13.32712 -11.72084,13.45116 -0.37098,0.1229 -0.49389,-1.72748 -0.49389,-4.56566 0,-14.93169 -3.82425,-30.8489 -10.48837,-44.42069 -2.83818,-5.67577 -3.33207,-7.03341 -2.713,-7.64963 2.34371,-2.09848 38.24989,-22.58134 60.95299,-34.79606 15.30041,-8.14353 39.23596,-20.23535 39.60923,-19.9884 z M 777.60849,351.9167 c 0.37098,0 3.20916,1.4794 6.41775,3.20802 7.89658,4.31815 14.92999,9.13018 21.22256,14.31377 0.24581,0.24581 -2.96108,2.83817 -7.15631,5.92101 -11.72254,8.39048 -29.49014,21.84107 -39.85333,30.10864 -10.86108,8.63742 -11.22865,8.88379 -9.9962,7.03341 8.14467,-12.46281 12.21473,-19.49622 16.53514,-28.50292 3.82425,-8.01949 7.6485,-17.52122 10.3632,-25.78879 0.98665,-3.57844 2.22138,-6.29314 2.46719,-6.29314 z m 41.58422,32.57411 c 0.61509,-0.12176 1.35764,0.98722 4.68742,5.92386 7.03341,10.4861 12.46281,24.55463 13.82215,35.90618 l 0.2441,2.46889 -16.90214,6.54009 c -30.23268,11.72083 -58.11709,23.32046 -76.99822,31.95618 -5.30422,2.46889 -14.559,6.90993 -20.60406,9.87328 -6.04676,3.08284 -10.98227,5.42769 -10.98227,5.30479 0,-0.1229 3.82425,-2.96108 8.51281,-6.41718 36.89624,-26.7743 68.85298,-56.14266 92.79025,-85.50875 2.59179,-3.08569 4.93721,-5.92386 5.18188,-6.04677 z m -19.12523,4.6897 c 0.4939,0.49333 -13.57235,16.40996 -23.19699,26.1575 -23.81435,24.30939 -47.38233,43.31228 -76.62666,61.82128 -3.70134,2.34371 -7.03227,4.44048 -7.40326,4.68856 -0.86431,0.49333 0.24581,-0.7414 13.07904,-14.68475 8.14466,-8.76089 14.31319,-16.16415 21.3466,-25.29376 4.68856,-6.04505 5.55287,-6.90936 12.34047,-11.72367 18.13858,-13.07961 59.96691,-41.45962 60.4608,-40.96516 z" />
  <path
     fill="#231F1F"
     d="M265.747 900.102c-2.276 0-4.553.217-6.809.217-45.975 2.45-76.983 22.683-95.113 62.195-15.506 35.735-13.813 82.446.174 118.4 16.265 35.131 42.547 53.672 86.416 60.675 9.282 1.52 15.506 6.616 33.483 27.606l22.12 25.915h40.118l-26.676-26.892c-14.746-14.745-26.673-27.584-26.673-28.712 0-1.127 5.641-3.599 12.469-5.68 22.51-6.812 41.203-24.202 54.279-50.854 10.583-21.402 12.102-28.018 13.619-54.646 3.969-79.26-37.82-128.813-107.409-128.247l.002.023zm35.173 207.27c-19.517 9.453-47.857 11.34-66.356 4.553-19.127-7.025-37.646-26.889-45.975-49.377-9.259-24.591-7.937-69.956 2.646-90.386 17.023-32.528 39.534-47.49 72.43-47.49 48.792 0 76.549 29.884 80.171 86.048 2.863 46.885-12.838 82.058-42.895 96.632l-.021.02zm693.025-139.568c-16.828 0-29.709 6.811-38.385 20.231l-6.809 10.627v-27.628h-29.123v165.678h29.104v-52.956c0-48.424.604-54.084 7.371-67.335 9.326-18.172 25.371-27.234 40.879-22.897l10.408 3.036v-28.712h-13.445v-.044zm-171.098-1.519c-5.705 0-11.756.76-17.781 2.084-38.971 10.19-60.938 47.489-59.594 85.873 0 32.139 6.244 48.206 21.752 65.057 31.77 26.065 60.502 28.146 99.275 14.161 6.615-2.819 13.814-6.072 13.814-6.072v-26.065l-13.814 7.156c-31.379 13.661-55.016 13.661-73.949-2.43-12.076-12.296-17.391-27.042-19.84-43.868h117.426v-22.339c0-45.539-27.41-74.294-67.313-73.557h.024zm-47.492 72.647s4.338-28.407 20.428-39.554c7.744-5.466 16.633-8.11 25.328-8.11 8.719 0 17.414 2.818 24.592 8.306 14.748 11.341 17.219 39.143 17.219 39.143h-87.566v.215h-.001zm-702.111-29.881c-31.573-19.128-45.582-32.921-43.869-49.185 4.9-44.997 60.503-38.773 91.295-21.749l.219-30.272s-17.024-7.373-41.421-7.764c-37.429-.564-61.63 11.709-72.97 36.691-16.656 36.865-1.908 64.665 51.396 95.677 29.925 17.412 43.152 32.528 43.152 49.008 0 34.047-41.05 45.931-83.401 24.57-8.716-4.337-16.09-7.959-16.48-7.959-1.519 9.651-.736 32.745-.736 32.745s13.012 5.466 32.527 9.236c48.4 9.65 92.445-13.054 96.608-49.919 3.622-34.609-8.893-52.761-56.318-81.104l-.002.025zm1178.454-43.155c-5.682 0-11.711.78-18 2.103-38.924 10.192-60.85 47.492-59.354 85.876 0 32.095 6.225 48.011 21.729 64.838 31.771 26.089 60.504 28.191 99.473 14.184 6.592-2.818 13.77-6.026 13.77-6.026v-26.109l-13.791 7.197c-31.443 13.619-55.082 13.619-73.947-2.471-12.145-12.274-17.414-26.847-19.865-43.871h117.232v-22.336c0-45.321-27.412-74.099-67.313-73.339l.066-.046zm-47.492 72.646s4.381-28.365 20.449-39.729c7.721-5.485 16.611-8.132 25.307-8.132 8.674 0 17.414 2.819 24.594 8.327 14.746 11.342 17.219 39.338 17.219 39.338h-87.545l-.024.196zm-533.809-29.123c-31.573-19.083-45.54-32.92-43.848-49.185 4.9-45.02 60.504-38.773 91.296-21.749l.218-30.272s-17.024-7.374-41.421-7.722c-37.429-.563-61.63 11.711-72.991 36.692-16.633 36.864-1.692 64.666 51.437 95.677 29.884 17.393 43.111 32.312 43.111 48.792 0 34.047-41.029 46.126-83.381 24.569-8.674-4.337-16.046-7.916-16.48-7.916-1.519 9.649-.736 32.746-.736 32.746s12.858 5.27 32.31 9.237c48.445 9.672 92.51-13.012 96.653-49.877 3.6-34.437-8.891-52.587-56.167-80.952v-.04zm752.421-42.005c-16.828 0-29.859 6.829-38.383 20.254l-6.811 10.582v-27.583h-29.123V1136.3h29.102v-52.954c0-48.403.584-54.085 7.375-67.313 9.324-18.15 25.369-27.235 40.875-22.878l10.408 3.035v-28.775h-13.443zm-984.021 41.05V902.941h-29.361v233.728h123.478v-27.604h-94.116v-100.601zm679.015 32.896l-24.201 62.975-23.27-63.322-23.637-70.173h-30.055c19.475 55.212 40.658 111.376 62.02 165.829 9.26.216 18.541 0 27.799 0l32.682-82.058 33.287-83.75h-28.732s-12.688 33.266-25.914 70.521l.021-.022zM506.455 839.251c4.728 0 8.674-1.516 11.927-4.769 3.208-3.211 4.9-6.984 4.9-11.711 0-4.728-1.692-8.675-4.9-11.711-3.253-3.035-7.005-4.555-11.711-4.555-4.769 0-8.717 1.52-11.927 4.728-3.252 3.211-4.727 7.158-4.727 11.712 0 4.771 1.519 8.716 4.727 11.711 3.037 3.034 6.984 4.553 11.711 4.553v.042zm-10.408-26.889c2.818-2.818 6.245-4.121 10.625-4.121 4.121 0 7.548 1.303 10.411 4.121 2.819 2.819 4.337 6.245 4.337 10.409 0 4.163-1.518 7.764-4.337 10.582-2.862 2.817-6.29 4.163-10.411 4.163-4.185 0-7.59-1.301-10.408-4.163-2.819-2.818-4.337-6.419-4.337-10.582 0-4.164 1.301-7.589 4.12-10.409zm7.003 11.928h1.908c1.346 0 2.668 1.3 3.795 3.773l2.279 5.116h3.577l-2.818-5.683c-1.149-2.275-2.276-3.598-3.6-3.969 1.67-.39 2.992-.953 3.947-2.082.952-.974 1.3-2.298 1.3-3.795 0-1.734-.542-3.034-1.69-3.989-1.302-1.084-3.384-1.669-6.074-1.669h-6.026v21.187h3.035v-8.891l.367.002zm0-9.846h2.647c1.908 0 3.253.39 3.99.953.716.564.911 1.303.911 2.646 0 2.45-1.52 3.601-4.337 3.601h-3.252v-7.2h.041zm-485.018 7.958c0-7.373-.216-12.858-.39-16.09h.174c.758 3.814 1.691 6.657 2.45 8.543l28.19 62.975h4.728l28.19-63.538c.761-1.733 1.52-4.337 2.452-7.959h.216c-.563 6.29-.758 11.754-.758 16.112v55.581h9.648v-82.622h-12.1L54.919 852.87c-.955 2.276-2.278 5.683-3.969 10.193h-.392c-.563-2.234-1.886-5.639-3.772-9.803l-25.33-58.053H8.598v82.621h9.281v-55.385l.153-.041zm96.045.154h8.329v51.458h-8.329v-51.458zm4.164-18.868c1.736 0 3.21-.587 4.337-1.734 1.15-1.129 1.91-2.603 1.91-4.337 0-1.692-.565-3.211-1.887-4.337-1.171-1.15-2.668-1.737-4.381-1.737-1.69 0-3.208.587-4.338 1.737-1.146 1.126-1.907 2.645-1.907 4.337 0 1.887.586 3.208 1.907 4.337 1.304 1.147 2.647 1.734 4.338 1.734h.021zm63.54 71.455v-9.066c-4.555 3.405-9.456 5.098-14.53 5.098-6.07 0-10.995-2.081-14.595-6.07-3.577-3.947-5.485-9.436-5.485-16.266 0-7.156 1.908-12.84 5.854-17.177 3.795-4.163 8.719-6.245 14.748-6.245 4.922 0 9.647 1.52 14.009 4.557v-9.65c-3.968-2.082-8.5-3.037-13.619-3.037-9.456 0-16.827 3.037-22.335 8.894-5.466 5.854-8.285 13.813-8.285 23.42 0 8.543 2.45 15.722 7.548 21.209 5.312 5.637 12.102 8.5 20.428 8.5 6.438-.178 11.707-1.523 16.262-4.167zm23.831-27.433c0-6.788 1.518-12.273 4.337-16.049 2.647-3.403 5.855-5.116 9.65-5.116 3.21 0 5.486.585 7.155 1.908v-9.846c-1.3-.563-3.187-.758-5.637-.758-3.405 0-6.439 1.146-9.107 3.253-2.819 2.231-5.074 5.638-6.397 9.975h-.216v-12.08h-9.433v58.985h9.454V847.71h.194zm54.279 31.443c8.892 0 16.048-2.863 21.36-8.543 5.29-5.641 7.936-13.229 7.936-22.686 0-9.647-2.427-17.021-7.372-22.51-4.9-5.483-11.711-8.132-20.603-8.132s-16.048 2.647-21.36 7.764c-5.681 5.641-8.674 13.599-8.674 23.813 0 8.891 2.429 16.265 7.548 21.751 5.29 5.68 12.295 8.521 21.165 8.521v.022zm-13.445-48.055c3.6-3.795 8.329-5.683 14.182-5.683 6.074 0 10.627 1.888 14.01 5.683 3.404 3.969 5.097 9.63 5.097 17.197 0 7.198-1.519 12.859-4.729 16.654-3.208 3.969-7.936 6.071-14.183 6.071-6.071 0-10.777-2.104-14.377-6.071-3.577-3.99-5.291-9.456-5.291-16.654-.368-7.156 1.519-13.01 5.291-17.197zm84.141 42.916c3.599-3.208 5.509-7.155 5.509-12.102 0-4.337-1.52-7.936-4.338-10.777-2.3-2.275-5.854-4.337-10.994-6.419-4.556-1.906-7.374-3.6-8.893-4.923-1.517-1.517-2.45-3.402-2.45-6.071 0-2.45.955-4.337 2.821-5.855 1.908-1.516 4.337-2.253 7.59-2.253 5.096 0 9.454 1.343 13.443 4.185v-9.456c-3.816-1.906-7.958-2.817-12.686-2.817-6.071 0-11.189 1.671-14.964 4.899-3.969 3.212-5.854 7.375-5.854 12.274 0 4.337 1.3 7.938 3.771 10.582 2.082 2.256 5.641 4.556 10.583 6.614 4.729 2.083 7.938 3.968 9.65 5.485 1.691 1.52 2.45 3.405 2.45 5.641 0 5.506-3.772 8.349-11.146 8.349-5.682 0-10.776-1.866-15.333-5.638v10.189c4.121 2.475 9.066 3.601 14.53 3.601 7.005-.368 12.49-2.081 16.264-5.486l.047-.022zm45.019-56.73c-8.893 0-16.048 2.647-21.361 7.764-5.638 5.641-8.674 13.599-8.674 23.813 0 8.891 2.452 16.265 7.547 21.751 5.313 5.68 12.295 8.521 21.187 8.521 9.107 0 16.048-2.861 21.36-8.545 5.313-5.637 7.958-13.227 7.958-22.683 0-9.65-2.472-17.022-7.374-22.509-5.115-5.487-11.927-8.133-20.601-8.133l-.042.021zm18.345 31.012c0 7.198-1.518 12.859-4.727 16.654-3.21 3.969-7.938 6.071-14.184 6.071-6.074 0-10.778-2.104-14.379-6.071-3.577-3.99-5.29-9.456-5.29-16.654 0-7.59 1.888-13.444 5.683-17.393 3.576-3.773 8.306-5.682 14.182-5.682 5.854 0 10.561 1.907 13.964 5.682 3.037 4.163 4.729 9.824 4.729 17.393h.022zm25.547 29.513h9.433v-51.068h13.813v-7.938H428.93v-9.108c0-8.282 3.208-12.446 9.845-12.446 2.234 0 4.511.563 6.203 1.518v-8.521c-1.692-.759-3.969-.932-6.812-.932-5.095 0-9.258 1.519-12.664 4.727-3.969 3.773-6.071 8.674-6.071 15.312v9.672h-9.978v7.936h9.978v50.876l.067-.028zm38.75-16.091c0 11.538 5.098 17.414 15.506 17.414 3.774 0 6.614-.606 8.891-1.951v-8.11c-1.734 1.302-3.795 1.91-6.071 1.91-3.208 0-5.464-.762-6.788-2.475-1.345-1.689-2.103-4.554-2.103-8.501v-33.286h14.961v-7.938h-14.961v-17.39c-3.253 1.127-6.44 2.082-9.456 3.034v14.355h-10.192v7.938h10.192v34.979l.021.021zm1014.88 108.73c-3.209-3.034-7.004-4.553-11.709-4.553-4.77 0-8.719 1.519-11.928 4.771-3.209 3.188-4.729 7.155-4.729 11.711 0 4.728 1.52 8.675 4.705 11.709 3.211 3.036 7.156 4.556 11.928 4.556 4.705 0 8.674-1.52 11.928-4.729 3.188-3.253 4.879-7.004 4.879-11.709-.174-4.771-1.887-8.719-5.096-11.754l.022-.002zm-1.517 22.338c-2.82 2.818-6.246 4.119-10.41 4.119-4.119 0-7.545-1.301-10.408-4.119-2.818-2.863-4.338-6.441-4.338-10.627 0-4.121 1.301-7.545 4.164-10.408 2.818-2.817 6.225-4.121 10.582-4.121 4.121 0 7.549 1.304 10.41 4.121 2.818 2.863 4.336 6.287 4.336 10.408 0 4.382-1.301 7.764-4.336 10.627zm-8.502-9.651c1.691-.39 3.037-1.149 3.969-2.081.955-.977 1.303-2.301 1.303-3.815 0-1.692-.543-3.037-1.691-3.969-1.301-1.085-3.404-1.671-6.07-1.671h-6.029v21.164h3.037v-8.891h1.885c1.303 0 2.604 1.3 3.773 3.773l2.254 5.096h3.602l-2.818-5.683c-.977-2.472-2.105-3.601-3.252-3.97l.037.047zm-2.082-1.907h-3.252v-7.155h2.668c1.887 0 3.209.345 3.969.932.758.563.932 1.301.932 2.646 0 2.45-1.518 3.579-4.336 3.579l.019-.002zM933.443 816.353h2.646v-21.187h7.002v-2.646h-16.652v2.646h7.006v21.187h-.002zm16.047-15.917c0-2.062 0-3.753-.152-4.705.174 1.126.564 1.887.738 2.45l8.133 18.172h1.301l8.152-18.347c.219-.563.393-1.301.76-2.275-.174 1.887-.174 3.401-.174 4.553v16.048h2.82V792.52h-3.406l-7.371 16.438c-.174.587-.762 1.734-1.129 3.037h-.217c-.152-.761-.541-1.519-1.084-2.818l-7.373-16.655h-3.816v23.854h2.666v-15.917l.152-.023z"
     id="path25"
     style="fill:#ffffff;fill-opacity:1" />
</svg>
